<svg width="24" height="26" viewBox="0 0 24 26" fill="none" xmlns="http://www.w3.org/2000/svg">
<path d="M23.5 3.5778V13.4514C23.5 13.8104 23.3602 14.1547 23.1114 14.4086C22.8625 14.6625 22.525 14.8051 22.1731 14.8051C21.8212 14.8051 21.4836 14.6625 21.2348 14.4086C20.986 14.1547 20.8462 13.8104 20.8462 13.4514V3.5778C20.8462 3.52921 20.8368 3.48109 20.8185 3.4362C20.8003 3.3913 20.7736 3.35051 20.7399 3.31615C20.7062 3.28179 20.6663 3.25453 20.6223 3.23594C20.5783 3.21734 20.5311 3.20777 20.4835 3.20777H3.55192C3.50141 3.20272 3.45041 3.20854 3.40224 3.22486C3.35407 3.24118 3.30979 3.26763 3.27226 3.30251C3.23474 3.33739 3.20482 3.37991 3.18442 3.42733C3.16402 3.47475 3.1536 3.52602 3.15385 3.5778V13.4514C3.15385 13.8104 3.01405 14.1547 2.7652 14.4086C2.51635 14.6625 2.17884 14.8051 1.82692 14.8051C1.475 14.8051 1.13749 14.6625 0.888647 14.4086C0.6398 14.1547 0.5 13.8104 0.5 13.4514V3.5778C0.499973 3.17059 0.579154 2.76742 0.732958 2.39166C0.886761 2.0159 1.11213 1.67501 1.396 1.38875C1.67987 1.1025 2.0166 0.876559 2.38667 0.724036C2.75675 0.571513 3.15282 0.495435 3.55192 0.500212H20.4481C20.8472 0.495435 21.2432 0.571513 21.6133 0.724036C21.9834 0.876559 22.3201 1.1025 22.604 1.38875C22.8879 1.67501 23.1132 2.0159 23.267 2.39166C23.4208 2.76742 23.5 3.17059 23.5 3.5778ZM22.1819 17.621C23.0002 18.4985 23.4566 19.6634 23.4566 20.8746C23.4566 22.0858 23.0002 23.2507 22.1819 24.1282C21.7755 24.5626 21.2868 24.9082 20.7454 25.1441C20.204 25.3799 19.6213 25.501 19.0327 25.5C18.444 25.501 17.8613 25.3799 17.32 25.1441C16.7786 24.9082 16.2899 24.5626 15.8835 24.1282C15.2229 23.4166 14.7963 22.5125 14.6631 21.5418C14.5299 20.5712 14.6968 19.5824 15.1404 18.713L12 15.4008L8.85961 18.713C9.30194 19.5827 9.46804 20.5712 9.3349 21.5416C9.20175 22.5119 8.77594 23.4159 8.11654 24.1282C7.71012 24.5626 7.22139 24.9082 6.68002 25.1441C6.13866 25.3799 5.55595 25.501 4.96731 25.5C4.37866 25.501 3.79596 25.3799 3.25459 25.1441C2.71323 24.9082 2.22449 24.5626 1.81808 24.1282C0.999758 23.2507 0.543388 22.0858 0.543388 20.8746C0.543388 19.6634 0.999758 18.4985 1.81808 17.621C2.46858 16.9175 3.32916 16.4535 4.26539 16.3017C5.20163 16.1498 6.16079 16.3186 6.99308 16.7817L10.1512 13.4514L6.11731 9.19147C5.88529 8.93167 5.76141 8.58999 5.77185 8.23868C5.78229 7.88737 5.92624 7.55398 6.17325 7.309C6.42027 7.06401 6.75099 6.92664 7.09549 6.92593C7.43999 6.92523 7.77125 7.06124 8.01923 7.30521L12 11.5109L15.9808 7.31423C16.2274 7.06803 16.5584 6.92955 16.9035 6.92816C17.2485 6.92676 17.5806 7.06257 17.8291 7.30677C18.0777 7.55097 18.2232 7.88436 18.2349 8.23621C18.2465 8.58806 18.1234 8.93071 17.8915 9.19147L13.8488 13.4604L17.0069 16.7907C17.8392 16.3276 18.7984 16.1589 19.7346 16.3107C20.6708 16.4626 21.5314 16.9265 22.1819 17.63V17.621ZM6.20577 19.5073C6.04693 19.3346 5.85508 19.197 5.64207 19.1029C5.42907 19.0088 5.19942 18.9603 4.96731 18.9603C4.7352 18.9603 4.50555 19.0088 4.29254 19.1029C4.07953 19.197 3.88769 19.3346 3.72885 19.5073C3.39499 19.8758 3.20957 20.3592 3.20957 20.861C3.20957 21.3629 3.39499 21.8463 3.72885 22.2148C3.88769 22.3875 4.07953 22.5251 4.29254 22.6192C4.50555 22.7133 4.7352 22.7618 4.96731 22.7618C5.19942 22.7618 5.42907 22.7133 5.64207 22.6192C5.85508 22.5251 6.04693 22.3875 6.20577 22.2148C6.53963 21.8463 6.72505 21.3629 6.72505 20.861C6.72505 20.3592 6.53963 19.8758 6.20577 19.5073ZM20.2712 19.5073C20.1123 19.3346 19.9205 19.197 19.7075 19.1029C19.4944 19.0088 19.2648 18.9603 19.0327 18.9603C18.8006 18.9603 18.5709 19.0088 18.3579 19.1029C18.1449 19.197 17.9531 19.3346 17.7942 19.5073C17.4604 19.8758 17.275 20.3592 17.275 20.861C17.275 21.3629 17.4604 21.8463 17.7942 22.2148C17.9531 22.3875 18.1449 22.5251 18.3579 22.6192C18.5709 22.7133 18.8006 22.7618 19.0327 22.7618C19.2648 22.7618 19.4944 22.7133 19.7075 22.6192C19.9205 22.5251 20.1123 22.3875 20.2712 22.2148C20.605 21.8463 20.7904 21.3629 20.7904 20.861C20.7904 20.3592 20.605 19.8758 20.2712 19.5073Z" fill="#696969"/>
</svg>
