<svg width="26" height="26" viewBox="0 0 26 26" fill="none" xmlns="http://www.w3.org/2000/svg">
<path d="M12.9948 0.500006C10.5996 0.498025 8.25482 1.18784 6.24185 2.48663C6.0933 2.58469 5.98943 2.73746 5.95283 2.91173C5.91623 3.08601 5.94987 3.26769 6.04642 3.41729C6.14297 3.56688 6.29463 3.67229 6.46843 3.71059C6.64223 3.7489 6.82412 3.71701 6.97455 3.62185C8.57635 2.58919 10.4173 1.98755 12.3195 1.8751V7.6424C11.131 7.79321 10.0262 8.33508 9.1791 9.18276C8.33195 10.0305 7.79043 11.1359 7.63971 12.3252H1.87609C1.99486 10.3308 2.64799 8.40516 3.76691 6.75044L3.97287 8.20662C3.9958 8.36899 4.07696 8.51746 4.2012 8.62438C4.32544 8.7313 4.4843 8.78936 4.64816 8.78775H4.74608C4.92338 8.76263 5.08344 8.66808 5.19109 8.52489C5.29873 8.3817 5.34513 8.2016 5.32008 8.02418L4.89127 4.99356C4.86617 4.81615 4.77168 4.65598 4.62858 4.54827C4.48548 4.44057 4.30549 4.39414 4.12819 4.4192L1.10288 4.8449C0.923777 4.86955 0.761796 4.96437 0.652568 5.10852C0.543339 5.25266 0.49581 5.43433 0.520436 5.61354C0.545062 5.79275 0.639826 5.95484 0.783881 6.06413C0.927937 6.17343 1.10948 6.22099 1.28858 6.19635L2.63917 6.00377C1.02956 8.38917 0.291884 11.2573 0.550688 14.1239C0.809493 16.9904 2.04892 19.6798 4.05971 21.738C6.07049 23.7961 8.72944 25.0969 11.5876 25.4206C14.4457 25.7444 17.328 25.0714 19.7477 23.5151C19.8963 23.4171 20.0001 23.2643 20.0367 23.09C20.0733 22.9157 20.0397 22.7341 19.9431 22.5845C19.8466 22.4349 19.6949 22.3295 19.5211 22.2912C19.3473 22.2529 19.1654 22.2848 19.015 22.3799C17.4132 23.4126 15.5722 24.0142 13.6701 24.1267V18.3594C14.8586 18.2085 15.9633 17.6667 16.8105 16.819C17.6576 15.9713 18.1991 14.8659 18.3499 13.6766H24.1135C23.9947 15.671 23.3416 17.5966 22.2227 19.2513L22.0167 17.7951C21.9916 17.6159 21.8964 17.454 21.7521 17.345C21.6077 17.2361 21.426 17.1889 21.2469 17.214C21.0678 17.2391 20.906 17.3344 20.797 17.4788C20.6881 17.6233 20.641 17.8051 20.6661 17.9843L21.0949 21.0251C21.1179 21.1874 21.199 21.3359 21.3232 21.4428C21.4475 21.5498 21.6063 21.6078 21.7702 21.6062H21.8647L24.8799 21.1805C25.059 21.1559 25.221 21.061 25.3302 20.9169C25.4395 20.7727 25.487 20.5911 25.4624 20.4119C25.4377 20.2327 25.343 20.0706 25.1989 19.9613C25.0549 19.852 24.8733 19.8044 24.6942 19.8291L23.3436 20.0216C24.6191 18.1413 25.3583 15.9487 25.4816 13.6795C25.6049 11.4103 25.1076 9.1504 24.0434 7.14282C22.9791 5.13524 21.3881 3.45594 19.4414 2.2855C17.4946 1.11506 15.2659 0.497769 12.9948 0.500006ZM12.3195 24.1267C9.60389 23.9609 7.04272 22.8068 5.11894 20.8817C3.19515 18.9567 2.0417 16.3939 1.87609 13.6766H7.63971C7.79043 14.8659 8.33195 15.9713 9.1791 16.819C10.0262 17.6667 11.131 18.2085 12.3195 18.3594V24.1267ZM15.0207 13.6766H16.9858C16.845 14.5053 16.4503 15.2698 15.8563 15.8642C15.2623 16.4586 14.4983 16.8536 13.6701 16.9944V15.028C13.6701 14.8488 13.5989 14.677 13.4723 14.5502C13.3456 14.4235 13.1739 14.3523 12.9948 14.3523C12.8157 14.3523 12.6439 14.4235 12.5173 14.5502C12.3906 14.677 12.3195 14.8488 12.3195 15.028V16.9944C11.4913 16.8536 10.7273 16.4586 10.1333 15.8642C9.53924 15.2698 9.14454 14.5053 9.0038 13.6766H10.9689C11.148 13.6766 11.3198 13.6054 11.4464 13.4787C11.573 13.352 11.6442 13.1801 11.6442 13.0009C11.6442 12.8217 11.573 12.6498 11.4464 12.5231C11.3198 12.3963 11.148 12.3252 10.9689 12.3252H9.0038C9.14454 11.4964 9.53924 10.7319 10.1333 10.1375C10.7273 9.54314 11.4913 9.14819 12.3195 9.00736V10.9737C12.3195 11.1529 12.3906 11.3248 12.5173 11.4515C12.6439 11.5782 12.8157 11.6494 12.9948 11.6494C13.1739 11.6494 13.3456 11.5782 13.4723 11.4515C13.5989 11.3248 13.6701 11.1529 13.6701 10.9737V9.00736C14.4983 9.14819 15.2623 9.54314 15.8563 10.1375C16.4503 10.7319 16.845 11.4964 16.9858 12.3252H15.0207C14.8416 12.3252 14.6698 12.3963 14.5432 12.5231C14.4165 12.6498 14.3454 12.8217 14.3454 13.0009C14.3454 13.1801 14.4165 13.352 14.5432 13.4787C14.6698 13.6054 14.8416 13.6766 15.0207 13.6766ZM18.3499 12.3252C18.1991 11.1359 17.6576 10.0305 16.8105 9.18276C15.9633 8.33508 14.8586 7.79321 13.6701 7.6424V1.8751C16.3857 2.04082 18.9468 3.19501 20.8706 5.12002C22.7944 7.04503 23.9479 9.60783 24.1135 12.3252H18.3499Z" fill="#696969"/>
</svg>
