<svg width="30" height="30" viewBox="0 0 30 30" fill="none" xmlns="http://www.w3.org/2000/svg">
<rect width="30" height="30" rx="15" fill="#F23A00"/>
<path d="M15.8975 5C16.5927 4.99742 16.9432 5.06308 17.5049 5.2998C18.0231 5.51823 18.3723 5.76429 18.8037 6.21582C19.4729 6.91628 19.8268 7.67954 19.9404 8.66406C20.0344 9.47896 19.8862 10.2536 19.3428 11.7793C19.1515 12.3164 18.9688 12.9074 18.9365 13.0928C18.8216 13.7532 19.0357 14.2181 19.5898 14.5098C20.1689 14.8146 20.8332 15.0153 21.4082 14.7266C21.8047 14.5274 21.9571 13.8716 22.1934 13C22.1934 12.0001 22.3793 11.3848 23.1016 11C23.8239 10.6152 24.9945 11.2777 25 12C25.0054 12.7223 24.4752 14.3995 23.6387 15C22.2458 15.9999 21.2031 16.3627 20.0684 16.4238C19.7604 16.4404 19.5141 16.4723 19.5215 16.4941C19.5639 16.6197 20.3337 17.4868 20.6221 17.7344C21.068 18.1171 21.4135 18.3388 22.3789 18.8604C22.8185 19.0978 23.3252 19.3964 23.5049 19.5234C23.9148 19.8132 24.3132 20.2492 24.4756 20.5869C24.9135 21.4976 24.5211 22.7095 23.6387 23.1729C23.3614 23.3183 22.9461 23.3466 22.752 23.2334C22.6416 23.1689 22.6438 23.1654 22.9121 23.0059C23.2917 22.7801 23.6247 22.4364 23.7725 22.1182C23.9276 21.7839 23.9203 21.3592 23.7549 21.1143C23.6121 20.903 23.1369 20.6528 22.1934 20.292C20.3378 19.5824 19.8205 19.2288 18.1055 17.4912C17.669 17.049 17.3027 16.6959 17.291 16.707C17.2799 16.7188 17.3915 17.0973 17.5391 17.5479C17.9339 18.7535 18.2609 19.4303 18.9014 20.3711C19.5971 21.393 19.7735 21.7009 19.918 22.1387C20.2116 23.0284 20.0718 23.824 19.5068 24.4756C19.0308 25.0244 18.4561 25.16 18.1367 24.7988C18.0004 24.6446 18.0121 24.6048 18.1924 24.6035C18.5488 24.6007 19.0075 24.2218 19.1309 23.8281C19.2755 23.3664 19.0227 22.6858 18.4561 22.0146C18.2653 21.7887 17.9419 21.4062 17.7373 21.165C17.0086 20.3059 16.4516 19.2641 15.9658 17.8477C15.8276 17.4448 15.705 17.1491 15.6934 17.1904C15.6816 17.2324 15.6244 17.5023 15.5664 17.791C15.3394 18.9211 14.9482 19.9421 14.4873 20.6045C14.3654 20.7796 13.9944 21.2499 13.6631 21.6494C13.3318 22.0489 12.9823 22.4962 12.8867 22.6436C12.7058 22.9223 12.5694 23.3179 12.5693 23.5635C12.5693 23.7693 12.6937 24.0533 12.8691 24.248C13.0161 24.411 13.5232 24.705 13.6572 24.7051C13.7107 24.7052 13.7109 24.7188 13.6602 24.7832C13.4797 25.0124 13.0936 25.068 12.8027 24.9062C12.3444 24.651 11.9117 23.8478 11.8311 23.1016C11.7547 22.3934 12.0836 21.5001 12.7227 20.6797C13.5297 19.6438 13.6636 19.3336 14.0156 17.6797C14.0844 17.3563 14.1551 17.0516 14.1729 17.0029C14.1903 16.9546 14.0029 17.1382 13.7559 17.4111C13.1633 18.0659 12.362 18.8238 11.9297 19.1387C11.4307 19.5021 10.8512 19.7908 9.9541 20.1211C9.5226 20.28 9.03171 20.475 8.86328 20.5547C7.54808 21.1769 7.54703 22.1224 8.86035 23.0518C8.95099 23.1159 9.03522 23.1772 9.04883 23.1885C9.10548 23.2364 8.90976 23.3011 8.70508 23.3018C8.11474 23.3035 7.4131 22.6145 7.21777 21.8418C7.12266 21.4653 7.13242 21.0127 7.24414 20.6396C7.48775 19.8266 8.15302 19.2333 9.3125 18.7939C9.84615 18.5917 10.569 18.2156 10.9619 17.9365C11.1265 17.8196 11.5361 17.4963 11.8711 17.2188L12.4795 16.7139L12.3223 16.6807C12.2355 16.6624 11.9857 16.6218 11.7666 16.5898C10.757 16.4427 10.1917 16.5896 8.32031 16C6.44901 15.4104 5.94824 14.5 5.94824 14.5C5.94269 14.4954 5 13.7155 5 12C5.00007 10.2796 7.00741 10.0817 7.37109 11C7.67957 11.7794 7.21835 12.5 7.21777 13C7.21726 13.5 7.3957 14.4527 8.05078 14.7266C8.70582 15.0002 9.74555 15 10.6943 15C11.4782 15 12.5037 14.6918 12.7158 13.8721C12.8467 13.3659 12.6671 12.3436 12.2207 11.0479C11.8663 10.0192 11.7851 9.62287 11.7891 8.94922C11.7931 8.26706 11.8864 7.84241 12.1641 7.24512C12.5376 6.44168 13.0857 5.88169 13.9004 5.4707C14.5578 5.13912 15.1353 5.00287 15.8975 5ZM14.877 11.5645C14.2001 11.5646 13.9601 12.2255 13.96 12.5078C13.96 12.9587 14.3868 13.4042 14.877 13.4043C15.4936 13.4043 15.7998 12.892 15.7998 12.5078C15.7997 12.1236 15.5038 11.5645 14.877 11.5645ZM23.5449 11.915C23.2771 11.915 23.0596 12.1446 23.0596 12.4268C23.0598 12.7088 23.2772 12.9375 23.5449 12.9375C23.8124 12.9372 24.0291 12.7086 24.0293 12.4268C24.0293 12.1447 23.8126 11.9153 23.5449 11.915ZM6.50098 10.9424C6.23313 10.9424 6.01563 11.1709 6.01562 11.4531C6.01562 11.7353 6.23313 11.9639 6.50098 11.9639C6.76866 11.9637 6.98535 11.7352 6.98535 11.4531C6.98534 11.1711 6.76865 10.9426 6.50098 10.9424ZM13.5674 9.43359C13.2997 9.4337 13.0831 9.66233 13.083 9.94434C13.083 10.2265 13.2996 10.455 13.5674 10.4551C13.8352 10.4551 14.0527 10.2265 14.0527 9.94434C14.0526 9.66227 13.8351 9.43359 13.5674 9.43359ZM16.4775 9.43359C16.2098 9.43359 15.9923 9.66227 15.9922 9.94434C15.9922 10.2265 16.2097 10.4551 16.4775 10.4551C16.7454 10.4551 16.9629 10.2265 16.9629 9.94434C16.9628 9.66228 16.7453 9.43362 16.4775 9.43359Z" fill="white"/>
</svg>
